<svg data-v-423bf9ae="" xmlns="http://www.w3.org/2000/svg" viewBox="0 0 1078.5708156924838 193" class="fontAboveSlogan"><!----><!----><!----><g data-v-423bf9ae="" id="dd3e0210-70df-4813-b27c-f201352e5c53" fill="black" transform="matrix(10.45769329414739,0,0,10.45769329414739,8.698149465221832,-48.58626611909801)"><path d="M2.77 7.36L2.77 7.36L2.77 7.36Q2.28 8.20 1.77 9.16L1.77 9.16L1.77 9.16Q1.26 10.12 0.80 11.05L0.80 11.05L0.80 11.05Q0.34 11.97-0.05 12.79L-0.05 12.79L-0.05 12.79Q-0.43 13.61-0.66 14.15L-0.66 14.15L-0.66 14.15Q-0.80 14.48-0.69 14.73L-0.69 14.73L-0.69 14.73Q-0.59 14.98-0.46 15.18L-0.46 15.18L-0.46 15.18Q-0.27 15.43-0.13 15.60L-0.13 15.60L-0.13 15.60Q0.01 15.76 0.17 15.93L0.17 15.93L0.17 15.93Q0.32 16.09 0.50 16.16L0.50 16.16L0.50 16.16Q0.69 16.24 1.06 16.10L1.06 16.10L1.06 16.10Q1.62 15.90 2.29 15.73L2.29 15.73L2.29 15.73Q2.95 15.55 3.54 15.39L3.54 15.39L3.54 15.39Q3.78 15.34 3.85 15.23L3.85 15.23L3.85 15.23Q3.92 15.12 3.85 14.84L3.85 14.84L3.85 14.84Q3.81 14.60 3.72 14.36L3.72 14.36L3.72 14.36Q3.64 14.11 3.53 13.85L3.53 13.85L3.53 13.85Q3.33 13.40 2.84 13.48L2.84 13.48L2.84 13.48Q2.48 13.55 2.14 13.63L2.14 13.63L2.14 13.63Q1.81 13.71 1.47 13.82L1.47 13.82L1.47 13.82Q2.32 12.21 3.23 10.57L3.23 10.57L3.23 10.57Q4.13 8.93 4.97 7.45L4.97 7.45L4.97 7.45Q5.12 7.18 5.13 6.95L5.13 6.95L5.13 6.95Q5.14 6.72 5.07 6.47L5.07 6.47L5.07 6.47Q5.01 6.27 4.96 6.05L4.96 6.05L4.96 6.05Q4.90 5.82 4.79 5.53L4.79 5.53L4.79 5.53Q4.69 5.29 4.57 5.19L4.57 5.19L4.57 5.19Q4.45 5.10 4.21 5.11L4.21 5.11L4.21 5.11Q3.77 5.14 3.27 5.19L3.27 5.19L3.27 5.19Q2.77 5.24 2.27 5.31L2.27 5.31L2.27 5.31Q1.78 5.38 1.32 5.47L1.32 5.47L1.32 5.47Q0.85 5.57 0.48 5.68L0.48 5.68L0.48 5.68Q0.32 5.75 0.27 5.85L0.27 5.85L0.27 5.85Q0.22 5.94 0.29 6.19L0.29 6.19L0.29 6.19Q0.38 6.44 0.52 6.78L0.52 6.78L0.52 6.78Q0.66 7.11 0.74 7.31L0.74 7.31L0.74 7.31Q0.90 7.56 1.08 7.63L1.08 7.63L1.08 7.63Q1.27 7.70 1.50 7.64L1.50 7.64L1.50 7.64Q1.79 7.56 2.10 7.50L2.10 7.50L2.10 7.50Q2.41 7.45 2.77 7.36ZM7.17 9.38L7.17 9.38L7.17 9.38Q7.27 10.61 7.41 11.82L7.41 11.82L7.41 11.82Q7.55 13.02 7.70 13.99L7.70 13.99L7.70 13.99Q7.74 14.22 7.78 14.38L7.78 14.38L7.78 14.38Q7.83 14.53 7.88 14.63L7.88 14.63L7.88 14.63Q7.94 14.73 8.01 14.79L8.01 14.79L8.01 14.79Q8.08 14.85 8.18 14.91L8.18 14.91L8.18 14.91Q8.48 15.06 8.82 15.16L8.82 15.16L8.82 15.16Q9.07 15.23 9.13 15.15L9.13 15.15L9.13 15.15Q9.20 15.06 9.30 14.77L9.30 14.77L9.30 14.77Q9.44 14.29 9.67 13.60L9.67 13.60L9.67 13.60Q9.90 12.91 10.17 12.14L10.17 12.14L10.17 12.14Q10.44 11.38 10.72 10.61L10.72 10.61L10.72 10.61Q11.00 9.83 11.24 9.20L11.24 9.20L11.24 9.20Q11.12 9.93 11.00 10.72L11.00 10.72L11.00 10.72Q10.89 11.52 10.80 12.26L10.80 12.26L10.80 12.26Q10.71 13.01 10.65 13.64L10.65 13.64L10.65 13.64Q10.58 14.27 10.56 14.67L10.56 14.67L10.56 14.67Q10.51 15.02 10.58 15.23L10.58 15.23L10.58 15.23Q10.65 15.44 10.88 15.60L10.88 15.60L10.88 15.60Q11.05 15.74 11.27 15.83L11.27 15.83L11.27 15.83Q11.49 15.93 11.72 16.00L11.72 16.00L11.72 16.00Q11.96 16.09 12.04 15.97L12.04 15.97L12.04 15.97Q12.12 15.86 12.18 15.61L12.18 15.61L12.18 15.61Q12.24 15.12 12.33 14.42L12.33 14.42L12.33 14.42Q12.42 13.72 12.54 12.92L12.54 12.92L12.54 12.92Q12.66 12.11 12.78 11.23L12.78 11.23L12.78 11.23Q12.91 10.36 13.04 9.53L13.04 9.53L13.04 9.53Q13.17 8.71 13.29 7.97L13.29 7.97L13.29 7.97Q13.41 7.24 13.51 6.69L13.51 6.69L13.51 6.69Q13.58 6.33 13.51 6.13L13.51 6.13L13.51 6.13Q13.44 5.92 13.19 5.77L13.19 5.77L13.19 5.77Q12.82 5.54 12.44 5.38L12.44 5.38L12.44 5.38Q12.05 5.22 11.72 5.11L11.72 5.11L11.72 5.11Q11.44 5.00 11.26 5.02L11.26 5.02L11.26 5.02Q11.07 5.04 10.93 5.21L10.93 5.21L10.93 5.21Q10.79 5.38 10.66 5.70L10.66 5.70L10.66 5.70Q10.53 6.02 10.35 6.52L10.35 6.52L10.35 6.52Q10.16 6.97 9.96 7.50L9.96 7.50L9.96 7.50Q9.76 8.02 9.57 8.55L9.57 8.55L9.57 8.55Q9.38 9.09 9.20 9.60L9.20 9.60L9.20 9.60Q9.02 10.12 8.88 10.56L8.88 10.56L8.88 10.56Q8.75 9.34 8.67 8.63L8.67 8.63L8.67 8.63Q8.60 7.92 8.55 7.55L8.55 7.55L8.55 7.55Q8.51 7.17 8.50 7.03L8.50 7.03L8.50 7.03Q8.50 6.89 8.50 6.79L8.50 6.79L8.50 6.79Q8.47 6.58 8.44 6.41L8.44 6.41L8.44 6.41Q8.41 6.24 8.35 6.10L8.35 6.10L8.35 6.10Q8.29 5.96 8.18 5.85L8.18 5.85L8.18 5.85Q8.06 5.74 7.87 5.64L7.87 5.64L7.87 5.64Q7.56 5.49 7.26 5.38L7.26 5.38L7.26 5.38Q6.96 5.26 6.52 5.18L6.52 5.18L6.52 5.18Q6.24 5.12 6.10 5.22L6.10 5.22L6.10 5.22Q5.96 5.32 5.88 5.68L5.88 5.68L5.88 5.68Q5.78 6.20 5.66 6.93L5.66 6.93L5.66 6.93Q5.54 7.66 5.42 8.48L5.42 8.48L5.42 8.48Q5.31 9.31 5.18 10.19L5.18 10.19L5.18 10.19Q5.05 11.06 4.96 11.89L4.96 11.89L4.96 11.89Q4.86 12.71 4.79 13.44L4.79 13.44L4.79 13.44Q4.72 14.17 4.69 14.69L4.69 14.69L4.69 14.69Q4.66 15.05 4.73 15.25L4.73 15.25L4.73 15.25Q4.80 15.44 5.03 15.61L5.03 15.61L5.03 15.61Q5.21 15.75 5.42 15.86L5.42 15.86L5.42 15.86Q5.64 15.96 5.85 16.03L5.85 16.03L5.85 16.03Q6.08 16.10 6.16 16.02L6.16 16.02L6.16 16.02Q6.24 15.95 6.29 15.69L6.29 15.69L6.29 15.69Q6.34 15.11 6.43 14.36L6.43 14.36L6.43 14.36Q6.52 13.61 6.64 12.78L6.64 12.78L6.64 12.78Q6.76 11.96 6.89 11.09L6.89 11.09L6.89 11.09Q7.03 10.22 7.17 9.38ZM14.50 5.84L14.50 5.84L13.44 13.93L13.44 13.93Q13.41 14.29 13.49 14.56L13.49 14.56L13.49 14.56Q13.57 14.83 13.72 15.02L13.72 15.02L13.72 15.02Q13.90 15.27 14.04 15.44L14.04 15.44L14.04 15.44Q14.18 15.60 14.34 15.75L14.34 15.75L14.34 15.75Q14.48 15.89 14.67 15.97L14.67 15.97L14.67 15.97Q14.85 16.04 15.23 15.90L15.23 15.90L15.23 15.90Q15.79 15.75 16.41 15.57L16.41 15.57L16.41 15.57Q17.02 15.39 17.61 15.22L17.61 15.22L17.61 15.22Q17.85 15.15 17.90 15.04L17.90 15.04L17.90 15.04Q17.95 14.94 17.89 14.66L17.89 14.66L17.89 14.66Q17.82 14.41 17.75 14.17L17.75 14.17L17.75 14.17Q17.68 13.93 17.57 13.66L17.57 13.66L17.57 13.66Q17.47 13.43 17.32 13.34L17.32 13.34L17.32 13.34Q17.18 13.26 16.94 13.29L16.94 13.29L16.94 13.29Q16.49 13.33 16.10 13.39L16.10 13.39L16.10 13.39Q15.71 13.45 15.29 13.57L15.29 13.57L15.29 13.57Q15.36 13.20 15.43 12.82L15.43 12.82L15.43 12.82Q15.50 12.43 15.57 12.03L15.57 12.03L15.57 12.03Q16.09 11.87 16.64 11.74L16.64 11.74L16.64 11.74Q17.19 11.61 17.72 11.47L17.72 11.47L17.72 11.47Q17.96 11.40 18.02 11.30L18.02 11.30L18.02 11.30Q18.07 11.20 18.00 10.91L18.00 10.91L18.00 10.91Q17.95 10.65 17.89 10.42L17.89 10.42L17.89 10.42Q17.82 10.18 17.71 9.93L17.71 9.93L17.71 9.93Q17.61 9.69 17.47 9.61L17.47 9.61L17.47 9.61Q17.33 9.53 17.09 9.55L17.09 9.55L17.09 9.55Q16.81 9.56 16.55 9.58L16.55 9.58L16.55 9.58Q16.30 9.60 16.03 9.66L16.03 9.66L16.03 9.66Q16.17 9.03 16.28 8.46L16.28 8.46L16.28 8.46Q16.39 7.88 16.51 7.36L16.51 7.36L16.51 7.36Q17.09 7.25 17.63 7.17L17.63 7.17L17.63 7.17Q18.17 7.08 18.66 7.01L18.66 7.01L18.66 7.01Q18.90 6.97 18.96 6.87L18.96 6.87L18.96 6.87Q19.03 6.76 18.98 6.47L18.98 6.47L18.98 6.47Q18.93 6.22 18.88 6.01L18.88 6.01L18.88 6.01Q18.83 5.80 18.72 5.53L18.72 5.53L18.72 5.53Q18.58 5.03 18.12 5.05L18.12 5.05L18.12 5.05Q17.14 5.11 16.18 5.35L16.18 5.35L16.18 5.35Q15.22 5.59 14.50 5.84ZM19.26 14.35L19.26 14.35L19.26 14.35Q19.40 14.74 19.60 15.01L19.60 15.01L19.60 15.01Q19.80 15.27 20.02 15.47L20.02 15.47L20.02 15.47Q20.55 15.92 21.39 16.00L21.39 16.00L21.39 16.00Q21.81 16.04 22.14 15.95L22.14 15.95L22.14 15.95Q22.47 15.86 22.79 15.62L22.79 15.62L22.79 15.62Q23.24 15.23 23.58 14.41L23.58 14.41L23.58 14.41Q23.93 13.58 24.20 12.41L24.20 12.41L24.20 12.41Q24.47 11.24 24.68 9.77L24.68 9.77L24.68 9.77Q24.89 8.30 25.09 6.59L25.09 6.59L25.09 6.59Q25.13 6.30 25.09 6.15L25.09 6.15L25.09 6.15Q25.05 5.99 24.81 5.80L24.81 5.80L24.81 5.80Q24.58 5.63 24.32 5.45L24.32 5.45L24.32 5.45Q24.05 5.28 23.81 5.19L23.81 5.19L23.81 5.19Q23.58 5.11 23.41 5.18L23.41 5.18L23.41 5.18Q23.25 5.25 23.24 5.56L23.24 5.56L23.24 5.56Q23.16 6.26 23.04 7.20L23.04 7.20L23.04 7.20Q22.92 8.15 22.76 9.14L22.76 9.14L22.76 9.14Q22.61 10.14 22.43 11.10L22.43 11.10L22.43 11.10Q22.25 12.05 22.04 12.78L22.04 12.78L22.04 12.78Q21.84 13.51 21.61 13.92L21.61 13.92L21.61 13.92Q21.38 14.34 21.13 14.24L21.13 14.24L21.13 14.24Q20.93 14.15 20.86 13.76L20.86 13.76L20.86 13.76Q20.79 13.36 20.82 12.76L20.82 12.76L20.82 12.76Q20.85 12.17 20.94 11.42L20.94 11.42L20.94 11.42Q21.04 10.68 21.18 9.92L21.18 9.92L21.18 9.92Q21.32 9.16 21.48 8.41L21.48 8.41L21.48 8.41Q21.64 7.67 21.78 7.07L21.78 7.07L21.78 7.07Q21.94 6.40 21.49 5.95L21.49 5.95L21.49 5.95Q21.28 5.75 21.06 5.60L21.06 5.60L21.06 5.60Q20.83 5.45 20.59 5.35L20.59 5.35L20.59 5.35Q20.34 5.24 20.21 5.30L20.21 5.30L20.21 5.30Q20.08 5.36 20.01 5.67L20.01 5.67L20.01 5.67Q19.75 6.75 19.51 7.97L19.51 7.97L19.51 7.97Q19.26 9.20 19.12 10.38L19.12 10.38L19.12 10.38Q18.98 11.56 18.99 12.61L18.99 12.61L18.99 12.61Q19.00 13.65 19.26 14.35ZM34.94 6.48L34.94 6.48L34.94 6.48Q35 6.20 34.95 6.04L34.95 6.04L34.95 6.04Q34.90 5.88 34.68 5.68L34.68 5.68L34.68 5.68Q34.44 5.49 34.18 5.33L34.18 5.33L34.18 5.33Q33.92 5.17 33.68 5.08L33.68 5.08L33.68 5.08Q33.43 4.98 33.30 5.03L33.30 5.03L33.30 5.03Q33.17 5.08 33.10 5.43L33.10 5.43L33.10 5.43Q32.93 6.36 32.75 7.56L32.75 7.56L32.75 7.56Q32.56 8.76 32.37 10.04L32.37 10.04L32.37 10.04Q32.05 10.07 31.69 10.11L31.69 10.11L31.69 10.11Q31.33 10.15 30.97 10.21L30.97 10.21L30.97 10.21Q31.15 9.16 31.30 8.25L31.30 8.25L31.30 8.25Q31.46 7.34 31.60 6.69L31.60 6.69L31.60 6.69Q31.65 6.40 31.60 6.24L31.60 6.24L31.60 6.24Q31.56 6.08 31.32 5.88L31.32 5.88L31.32 5.88Q31.09 5.68 30.80 5.52L30.80 5.52L30.80 5.52Q30.51 5.35 30.25 5.25L30.25 5.25L30.25 5.25Q30.02 5.14 29.89 5.19L29.89 5.19L29.89 5.19Q29.76 5.25 29.69 5.60L29.69 5.60L29.69 5.60Q29.57 6.54 29.43 7.72L29.43 7.72L29.43 7.72Q29.29 8.90 29.14 10.13L29.14 10.13L29.14 10.13Q28.99 11.35 28.84 12.52L28.84 12.52L28.84 12.52Q28.69 13.69 28.52 14.62L28.52 14.62L28.52 14.62Q28.45 14.98 28.53 15.18L28.53 15.18L28.53 15.18Q28.62 15.39 28.83 15.54L28.83 15.54L28.83 15.54Q28.99 15.69 29.24 15.79L29.24 15.79L29.24 15.79Q29.48 15.89 29.71 15.99L29.71 15.99L29.71 15.99Q29.95 16.07 30.03 16.00L30.03 16.00L30.03 16.00Q30.11 15.93 30.16 15.69L30.16 15.69L30.16 15.69Q30.25 15.02 30.36 14.20L30.36 14.20L30.36 14.20Q30.46 13.37 30.62 12.45L30.62 12.45L30.62 12.45Q30.98 12.36 31.35 12.29L31.35 12.29L31.35 12.29Q31.72 12.22 32.09 12.14L32.09 12.14L32.09 12.14Q31.99 12.89 31.92 13.53L31.92 13.53L31.92 13.53Q31.85 14.17 31.82 14.66L31.82 14.66L31.82 14.66Q31.74 15.16 31.95 15.41L31.95 15.41L31.95 15.41Q32.17 15.65 32.55 15.82L32.55 15.82L32.55 15.82Q32.73 15.89 32.90 15.95L32.90 15.95L32.90 15.95Q33.07 16.02 33.19 16.03L33.19 16.03L33.19 16.03Q33.31 16.04 33.38 15.97L33.38 15.97L33.38 15.97Q33.45 15.90 33.45 15.71L33.45 15.71L33.45 15.71Q33.60 14.57 33.79 13.31L33.79 13.31L33.79 13.31Q33.98 12.05 34.18 10.82L34.18 10.82L34.18 10.82Q34.38 9.59 34.58 8.47L34.58 8.47L34.58 8.47Q34.78 7.35 34.94 6.48ZM39.13 13.17L39.13 13.17L39.13 13.17Q39.16 13.72 39.20 14.20L39.20 14.20L39.20 14.20Q39.24 14.67 39.28 15.08L39.28 15.08L39.28 15.08Q39.33 15.47 39.42 15.62L39.42 15.62L39.42 15.62Q39.51 15.78 39.73 15.88L39.73 15.88L39.73 15.88Q39.96 15.99 40.17 16.01L40.17 16.01L40.17 16.01Q40.38 16.03 40.61 16.03L40.61 16.03L40.61 16.03Q40.85 16.03 40.92 15.93L40.92 15.93L40.92 15.93Q40.99 15.83 40.98 15.58L40.98 15.58L40.98 15.58Q40.92 14.41 40.87 13.11L40.87 13.11L40.87 13.11Q40.82 11.82 40.79 10.57L40.79 10.57L40.79 10.57Q40.75 9.32 40.75 8.21L40.75 8.21L40.75 8.21Q40.74 7.10 40.75 6.30L40.75 6.30L40.75 6.30Q40.77 5.98 40.69 5.78L40.69 5.78L40.69 5.78Q40.61 5.57 40.35 5.46L40.35 5.46L40.35 5.46Q39.98 5.32 39.58 5.18L39.58 5.18L39.58 5.18Q39.17 5.04 38.51 5.00L38.51 5.00L38.51 5.00Q38.14 4.96 37.94 5.14L37.94 5.14L37.94 5.14Q37.74 5.32 37.62 5.61L37.62 5.61L37.62 5.61Q37.27 6.45 36.85 7.60L36.85 7.60L36.85 7.60Q36.43 8.74 36.02 9.95L36.02 9.95L36.02 9.95Q35.62 11.16 35.25 12.33L35.25 12.33L35.25 12.33Q34.87 13.50 34.62 14.42L34.62 14.42L34.62 14.42Q34.54 14.83 34.55 14.99L34.55 14.99L34.55 14.99Q34.57 15.16 34.66 15.30L34.66 15.30L34.66 15.30Q34.76 15.44 34.90 15.55L34.90 15.55L34.90 15.55Q35.04 15.67 35.19 15.76L35.19 15.76L35.19 15.76Q35.34 15.85 35.45 15.92L35.45 15.92L35.45 15.92Q35.66 16.03 35.76 15.99L35.76 15.99L35.76 15.99Q35.87 15.95 35.95 15.71L35.95 15.71L35.95 15.71Q36.09 15.26 36.24 14.79L36.24 14.79L36.24 14.79Q36.39 14.32 36.58 13.79L36.58 13.79L36.58 13.79Q37.10 13.59 37.78 13.45L37.78 13.45L37.78 13.45Q38.46 13.31 39.13 13.17ZM37.41 11.35L37.41 11.35L37.41 11.35Q37.81 10.18 38.21 9.11L38.21 9.11L38.21 9.11Q38.61 8.05 38.93 7.21L38.93 7.21L38.93 7.21Q38.93 8.13 38.96 9.11L38.96 9.11L38.96 9.11Q38.99 10.09 39.02 11.10L39.02 11.10L39.02 11.10Q38.21 11.19 37.41 11.35ZM41.99 14.35L41.99 14.35L41.99 14.35Q42.13 14.74 42.32 15.01L42.32 15.01L42.32 15.01Q42.52 15.27 42.74 15.47L42.74 15.47L42.74 15.47Q43.27 15.92 44.11 16.00L44.11 16.00L44.11 16.00Q44.53 16.04 44.86 15.95L44.86 15.95L44.86 15.95Q45.19 15.86 45.51 15.62L45.51 15.62L45.51 15.62Q45.96 15.23 46.31 14.41L46.31 14.41L46.31 14.41Q46.65 13.58 46.92 12.41L46.92 12.41L46.92 12.41Q47.19 11.24 47.40 9.77L47.40 9.77L47.40 9.77Q47.61 8.30 47.81 6.59L47.81 6.59L47.81 6.59Q47.85 6.30 47.81 6.15L47.81 6.15L47.81 6.15Q47.77 5.99 47.53 5.80L47.53 5.80L47.53 5.80Q47.31 5.63 47.04 5.45L47.04 5.45L47.04 5.45Q46.77 5.28 46.54 5.19L46.54 5.19L46.54 5.19Q46.30 5.11 46.14 5.18L46.14 5.18L46.14 5.18Q45.98 5.25 45.96 5.56L45.96 5.56L45.96 5.56Q45.88 6.26 45.76 7.20L45.76 7.20L45.76 7.20Q45.64 8.15 45.49 9.14L45.49 9.14L45.49 9.14Q45.33 10.14 45.15 11.10L45.15 11.10L45.15 11.10Q44.97 12.05 44.77 12.78L44.77 12.78L44.77 12.78Q44.56 13.51 44.33 13.92L44.33 13.92L44.33 13.92Q44.10 14.34 43.85 14.24L43.85 14.24L43.85 14.24Q43.65 14.15 43.58 13.76L43.58 13.76L43.58 13.76Q43.51 13.36 43.54 12.76L43.54 12.76L43.54 12.76Q43.57 12.17 43.67 11.42L43.67 11.42L43.67 11.42Q43.76 10.68 43.90 9.92L43.90 9.92L43.90 9.92Q44.04 9.16 44.21 8.41L44.21 8.41L44.21 8.41Q44.37 7.67 44.51 7.07L44.51 7.07L44.51 7.07Q44.66 6.40 44.21 5.95L44.21 5.95L44.21 5.95Q44.00 5.75 43.78 5.60L43.78 5.60L43.78 5.60Q43.55 5.45 43.32 5.35L43.32 5.35L43.32 5.35Q43.06 5.24 42.93 5.30L42.93 5.30L42.93 5.30Q42.80 5.36 42.73 5.67L42.73 5.67L42.73 5.67Q42.48 6.75 42.23 7.97L42.23 7.97L42.23 7.97Q41.99 9.20 41.85 10.38L41.85 10.38L41.85 10.38Q41.71 11.56 41.71 12.61L41.71 12.61L41.71 12.61Q41.72 13.65 41.99 14.35ZM47.63 13.01L47.63 13.01L47.63 13.01Q47.45 13.15 47.45 13.40L47.45 13.40L47.45 13.40Q47.45 13.65 47.84 14.17L47.84 14.17L47.84 14.17Q48.55 15.22 49.26 15.65L49.26 15.65L49.26 15.65Q49.97 16.09 50.72 16.06L50.72 16.06L50.72 16.06Q51.28 16.04 51.68 15.85L51.68 15.85L51.68 15.85Q52.08 15.65 52.35 15.36L52.35 15.36L52.35 15.36Q52.61 15.06 52.77 14.73L52.77 14.73L52.77 14.73Q52.93 14.39 53.02 14.10L53.02 14.10L53.02 14.10Q53.21 13.50 53.00 13.01L53.00 13.01L53.00 13.01Q52.78 12.53 52.37 12.09L52.37 12.09L52.37 12.09Q51.95 11.65 51.44 11.21L51.44 11.21L51.44 11.21Q50.93 10.77 50.54 10.25L50.54 10.25L50.54 10.25Q50.25 9.86 50.26 9.36L50.26 9.36L50.26 9.36Q50.27 8.86 50.44 8.39L50.44 8.39L50.44 8.39Q50.61 7.91 50.88 7.53L50.88 7.53L50.88 7.53Q51.14 7.14 51.35 6.99L51.35 6.99L51.35 6.99Q51.51 6.83 51.58 6.86L51.58 6.86L51.58 6.86Q51.65 6.89 51.66 7.04L51.66 7.04L51.66 7.04Q51.67 7.18 51.65 7.42L51.65 7.42L51.65 7.42Q51.62 7.66 51.58 7.92L51.58 7.92L51.58 7.92Q51.53 8.19 51.49 8.46L51.49 8.46L51.49 8.46Q51.45 8.74 51.44 8.95L51.44 8.95L51.44 8.95Q51.35 9.97 52.56 10.56L52.56 10.56L52.56 10.56Q52.78 10.68 52.89 10.61L52.89 10.61L52.89 10.61Q52.99 10.54 53.09 10.30L53.09 10.30L53.09 10.30Q53.17 10.04 53.25 9.67L53.25 9.67L53.25 9.67Q53.33 9.30 53.39 8.90L53.39 8.90L53.39 8.90Q53.45 8.50 53.50 8.11L53.50 8.11L53.50 8.11Q53.55 7.71 53.56 7.42L53.56 7.42L53.56 7.42Q53.55 7.07 53.49 6.65L53.49 6.65L53.49 6.65Q53.42 6.23 53.07 5.82L53.07 5.82L53.07 5.82Q52.81 5.52 52.43 5.26L52.43 5.26L52.43 5.26Q52.05 5.00 51.69 4.83L51.69 4.83L51.69 4.83Q51.45 4.73 51.23 4.72L51.23 4.72L51.23 4.72Q51.00 4.70 50.81 4.75L50.81 4.75L50.81 4.75Q50.61 4.79 50.46 4.88L50.46 4.88L50.46 4.88Q50.30 4.97 50.20 5.07L50.20 5.07L50.20 5.07Q49.91 5.31 49.61 5.67L49.61 5.67L49.61 5.67Q49.31 6.03 49.06 6.45L49.06 6.45L49.06 6.45Q48.80 6.87 48.62 7.31L48.62 7.31L48.62 7.31Q48.43 7.76 48.34 8.18L48.34 8.18L48.34 8.18Q48.09 9.14 48.30 9.96L48.30 9.96L48.30 9.96Q48.51 10.78 48.99 11.34L48.99 11.34L48.99 11.34Q49.32 11.75 49.76 12.14L49.76 12.14L49.76 12.14Q50.19 12.53 50.55 12.88L50.55 12.88L50.55 12.88Q50.92 13.23 51.11 13.50L51.11 13.50L51.11 13.50Q51.30 13.78 51.14 13.93L51.14 13.93L51.14 13.93Q50.89 14.24 50.32 14.04L50.32 14.04L50.32 14.04Q49.74 13.83 48.99 13.12L48.99 13.12L48.99 13.12Q48.72 12.87 48.34 12.83L48.34 12.83L48.34 12.83Q47.95 12.80 47.63 13.01ZM58.30 10.68L58.30 10.68L58.30 10.68Q58.58 10.46 58.79 10.23L58.79 10.23L58.79 10.23Q59.01 10.01 59.21 9.79L59.21 9.79L59.21 9.79Q59.57 9.34 59.79 8.75L59.79 8.75L59.79 8.75Q60.02 8.16 59.91 7.49L59.91 7.49L59.91 7.49Q59.79 6.89 59.58 6.45L59.58 6.45L59.58 6.45Q59.36 6.01 59.07 5.61L59.07 5.61L59.07 5.61Q58.73 5.19 58.14 5.08L58.14 5.08L58.14 5.08Q57.54 4.96 56.87 5.05L56.87 5.05L56.87 5.05Q56.20 5.14 55.53 5.40L55.53 5.40L55.53 5.40Q54.87 5.67 54.39 6.01L54.39 6.01L54.39 6.01Q54.35 6.87 54.24 7.89L54.24 7.89L54.24 7.89Q54.14 8.90 54.03 9.93L54.03 9.93L54.03 9.93Q53.91 10.96 53.80 11.95L53.80 11.95L53.80 11.95Q53.69 12.94 53.63 13.75L53.63 13.75L53.63 13.75Q53.61 14 53.61 14.17L53.61 14.17L53.61 14.17Q53.62 14.34 53.66 14.47L53.66 14.47L53.66 14.47Q53.70 14.60 53.78 14.72L53.78 14.72L53.78 14.72Q53.86 14.84 53.96 15.01L53.96 15.01L53.96 15.01Q54.22 15.33 54.43 15.53L54.43 15.53L54.43 15.53Q54.63 15.74 54.91 15.92L54.91 15.92L54.91 15.92Q55.05 16.04 55.16 16.11L55.16 16.11L55.16 16.11Q55.27 16.17 55.39 16.18L55.39 16.18L55.39 16.18Q55.51 16.20 55.64 16.16L55.64 16.16L55.64 16.16Q55.76 16.13 55.94 16.06L55.94 16.06L55.94 16.06Q56.28 15.93 56.65 15.74L56.65 15.74L56.65 15.74Q57.02 15.55 57.39 15.32L57.39 15.32L57.39 15.32Q57.75 15.08 58.07 14.79L58.07 14.79L58.07 14.79Q58.39 14.50 58.63 14.18L58.63 14.18L58.63 14.18Q58.95 13.78 59.10 13.35L59.10 13.35L59.10 13.35Q59.25 12.92 59.18 12.33L59.18 12.33L59.18 12.33Q59.11 11.84 58.88 11.39L58.88 11.39L58.88 11.39Q58.65 10.93 58.30 10.68ZM56 9.80L56 9.80L56 9.80Q56.11 9.17 56.21 8.61L56.21 8.61L56.21 8.61Q56.31 8.05 56.42 7.56L56.42 7.56L56.42 7.56Q57.13 7.11 57.64 7.09L57.64 7.09L57.64 7.09Q58.14 7.07 58.21 7.36L58.21 7.36L58.21 7.36Q58.25 7.55 58.12 7.85L58.12 7.85L58.12 7.85Q57.99 8.16 57.69 8.51L57.69 8.51L57.69 8.51Q57.40 8.86 56.97 9.21L56.97 9.21L56.97 9.21Q56.55 9.55 56 9.80ZM55.64 11.89L55.64 11.89L55.64 11.89Q55.99 11.72 56.28 11.66L56.28 11.66L56.28 11.66Q56.57 11.61 56.80 11.64L56.80 11.64L56.80 11.64Q57.02 11.68 57.16 11.77L57.16 11.77L57.16 11.77Q57.29 11.87 57.33 12.01L57.33 12.01L57.33 12.01Q57.37 12.24 57.24 12.50L57.24 12.50L57.24 12.50Q57.11 12.77 56.84 13.04L56.84 13.04L56.84 13.04Q56.57 13.31 56.18 13.56L56.18 13.56L56.18 13.56Q55.79 13.80 55.31 13.99L55.31 13.99L55.31 13.99Q55.38 13.45 55.47 12.94L55.47 12.94L55.47 12.94Q55.55 12.42 55.64 11.89ZM61.03 5.84L61.03 5.84L59.96 13.93L59.96 13.93Q59.93 14.29 60.01 14.56L60.01 14.56L60.01 14.56Q60.09 14.83 60.24 15.02L60.24 15.02L60.24 15.02Q60.42 15.27 60.56 15.44L60.56 15.44L60.56 15.44Q60.70 15.60 60.86 15.75L60.86 15.75L60.86 15.75Q61.00 15.89 61.19 15.97L61.19 15.97L61.19 15.97Q61.38 16.04 61.75 15.90L61.75 15.90L61.75 15.90Q62.31 15.75 62.93 15.57L62.93 15.57L62.93 15.57Q63.55 15.39 64.13 15.22L64.13 15.22L64.13 15.22Q64.37 15.15 64.42 15.04L64.42 15.04L64.42 15.04Q64.47 14.94 64.41 14.66L64.41 14.66L64.41 14.66Q64.34 14.41 64.27 14.17L64.27 14.17L64.27 14.17Q64.20 13.93 64.09 13.66L64.09 13.66L64.09 13.66Q63.99 13.43 63.85 13.34L63.85 13.34L63.85 13.34Q63.70 13.26 63.46 13.29L63.46 13.29L63.46 13.29Q63.01 13.33 62.62 13.39L62.62 13.39L62.62 13.39Q62.23 13.45 61.81 13.57L61.81 13.57L61.81 13.57Q61.88 13.20 61.95 12.82L61.95 12.82L61.95 12.82Q62.02 12.43 62.09 12.03L62.09 12.03L62.09 12.03Q62.61 11.87 63.16 11.74L63.16 11.74L63.16 11.74Q63.71 11.61 64.25 11.47L64.25 11.47L64.25 11.47Q64.48 11.40 64.54 11.30L64.54 11.30L64.54 11.30Q64.60 11.20 64.53 10.91L64.53 10.91L64.53 10.91Q64.47 10.65 64.41 10.42L64.41 10.42L64.41 10.42Q64.34 10.18 64.23 9.93L64.23 9.93L64.23 9.93Q64.13 9.69 63.99 9.61L63.99 9.61L63.99 9.61Q63.85 9.53 63.62 9.55L63.62 9.55L63.62 9.55Q63.34 9.56 63.08 9.58L63.08 9.58L63.08 9.58Q62.82 9.60 62.55 9.66L62.55 9.66L62.55 9.66Q62.69 9.03 62.80 8.46L62.80 8.46L62.80 8.46Q62.92 7.88 63.03 7.36L63.03 7.36L63.03 7.36Q63.62 7.25 64.16 7.17L64.16 7.17L64.16 7.17Q64.69 7.08 65.18 7.01L65.18 7.01L65.18 7.01Q65.42 6.97 65.48 6.87L65.48 6.87L65.48 6.87Q65.55 6.76 65.51 6.47L65.51 6.47L65.51 6.47Q65.45 6.22 65.40 6.01L65.40 6.01L65.40 6.01Q65.35 5.80 65.24 5.53L65.24 5.53L65.24 5.53Q65.10 5.03 64.64 5.05L64.64 5.05L64.64 5.05Q63.66 5.11 62.70 5.35L62.70 5.35L62.70 5.35Q61.74 5.59 61.03 5.84ZM65.11 13.01L65.11 13.01L65.11 13.01Q64.93 13.15 64.93 13.40L64.93 13.40L64.93 13.40Q64.93 13.65 65.32 14.17L65.32 14.17L65.32 14.17Q66.04 15.22 66.75 15.65L66.75 15.65L66.75 15.65Q67.45 16.09 68.21 16.06L68.21 16.06L68.21 16.06Q68.77 16.04 69.17 15.85L69.17 15.85L69.17 15.85Q69.57 15.65 69.83 15.36L69.83 15.36L69.83 15.36Q70.10 15.06 70.26 14.73L70.26 14.73L70.26 14.73Q70.42 14.39 70.50 14.10L70.50 14.10L70.50 14.10Q70.70 13.50 70.48 13.01L70.48 13.01L70.48 13.01Q70.27 12.53 69.85 12.09L69.85 12.09L69.85 12.09Q69.44 11.65 68.93 11.21L68.93 11.21L68.93 11.21Q68.42 10.77 68.03 10.25L68.03 10.25L68.03 10.25Q67.73 9.86 67.75 9.36L67.75 9.36L67.75 9.36Q67.76 8.86 67.93 8.39L67.93 8.39L67.93 8.39Q68.10 7.91 68.36 7.53L68.36 7.53L68.36 7.53Q68.63 7.14 68.84 6.99L68.84 6.99L68.84 6.99Q68.99 6.83 69.06 6.86L69.06 6.86L69.06 6.86Q69.13 6.89 69.15 7.04L69.15 7.04L69.15 7.04Q69.16 7.18 69.13 7.42L69.13 7.42L69.13 7.42Q69.10 7.66 69.06 7.92L69.06 7.92L69.06 7.92Q69.02 8.19 68.98 8.46L68.98 8.46L68.98 8.46Q68.94 8.74 68.92 8.95L68.92 8.95L68.92 8.95Q68.84 9.97 70.04 10.56L70.04 10.56L70.04 10.56Q70.27 10.68 70.37 10.61L70.37 10.61L70.37 10.61Q70.48 10.54 70.57 10.30L70.57 10.30L70.57 10.30Q70.66 10.04 70.73 9.67L70.73 9.67L70.73 9.67Q70.81 9.30 70.88 8.90L70.88 8.90L70.88 8.90Q70.94 8.50 70.99 8.11L70.99 8.11L70.99 8.11Q71.04 7.71 71.05 7.42L71.05 7.42L71.05 7.42Q71.04 7.07 70.97 6.65L70.97 6.65L70.97 6.65Q70.91 6.23 70.56 5.82L70.56 5.82L70.56 5.82Q70.29 5.52 69.92 5.26L69.92 5.26L69.92 5.26Q69.54 5.00 69.17 4.83L69.17 4.83L69.17 4.83Q68.94 4.73 68.71 4.72L68.71 4.72L68.71 4.72Q68.49 4.70 68.29 4.75L68.29 4.75L68.29 4.75Q68.10 4.79 67.94 4.88L67.94 4.88L67.94 4.88Q67.79 4.97 67.69 5.07L67.69 5.07L67.69 5.07Q67.40 5.31 67.09 5.67L67.09 5.67L67.09 5.67Q66.79 6.03 66.54 6.45L66.54 6.45L66.54 6.45Q66.29 6.87 66.10 7.31L66.10 7.31L66.10 7.31Q65.91 7.76 65.83 8.18L65.83 8.18L65.83 8.18Q65.58 9.14 65.79 9.96L65.79 9.96L65.79 9.96Q66.00 10.78 66.47 11.34L66.47 11.34L66.47 11.34Q66.81 11.75 67.24 12.14L67.24 12.14L67.24 12.14Q67.68 12.53 68.04 12.88L68.04 12.88L68.04 12.88Q68.40 13.23 68.59 13.50L68.59 13.50L68.59 13.50Q68.78 13.78 68.63 13.93L68.63 13.93L68.63 13.93Q68.38 14.24 67.80 14.04L67.80 14.04L67.80 14.04Q67.23 13.83 66.47 13.12L66.47 13.12L66.47 13.12Q66.21 12.87 65.82 12.83L65.82 12.83L65.82 12.83Q65.44 12.80 65.11 13.01ZM76.16 5.92L76.16 5.92L76.16 5.92Q75.88 5.63 75.45 5.43L75.45 5.43L75.45 5.43Q75.03 5.22 74.56 5.12L74.56 5.12L74.56 5.12Q74.21 5.05 73.82 5.20L73.82 5.20L73.82 5.20Q73.42 5.35 73.14 5.64L73.14 5.64L73.14 5.64Q72.46 6.38 72.02 7.48L72.02 7.48L72.02 7.48Q71.57 8.58 71.35 9.78L71.35 9.78L71.35 9.78Q71.13 10.98 71.16 12.15L71.16 12.15L71.16 12.15Q71.19 13.33 71.48 14.25L71.48 14.25L71.48 14.25Q71.61 14.64 71.85 14.95L71.85 14.95L71.85 14.95Q72.09 15.26 72.32 15.46L72.32 15.46L72.32 15.46Q72.63 15.69 73.00 15.81L73.00 15.81L73.00 15.81Q73.37 15.93 73.72 15.99L73.72 15.99L73.72 15.99Q74.26 16.07 74.67 15.93L74.67 15.93L74.67 15.93Q75.08 15.78 75.45 15.34L75.45 15.34L75.45 15.34Q75.96 14.63 76.30 13.64L76.30 13.64L76.30 13.64Q76.64 12.66 76.81 11.59L76.81 11.59L76.81 11.59Q76.99 10.51 77 9.46L77 9.46L77 9.46Q77.01 8.40 76.89 7.53L76.89 7.53L76.89 7.53Q76.80 7.04 76.64 6.65L76.64 6.65L76.64 6.65Q76.48 6.26 76.16 5.92ZM74.86 7.03L74.86 7.03L74.86 7.03Q75.03 7.10 75.11 7.52L75.11 7.52L75.11 7.52Q75.19 7.94 75.20 8.53L75.20 8.53L75.20 8.53Q75.21 9.11 75.15 9.79L75.15 9.79L75.15 9.79Q75.10 10.46 74.98 11.05L74.98 11.05L74.98 11.05Q74.86 11.79 74.68 12.42L74.68 12.42L74.68 12.42Q74.49 13.05 74.29 13.49L74.29 13.49L74.29 13.49Q74.09 13.93 73.87 14.14L73.87 14.14L73.87 14.14Q73.65 14.35 73.47 14.25L73.47 14.25L73.47 14.25Q73.26 14.15 73.16 13.75L73.16 13.75L73.16 13.75Q73.07 13.34 73.05 12.78L73.05 12.78L73.05 12.78Q73.04 12.21 73.10 11.55L73.10 11.55L73.10 11.55Q73.16 10.89 73.29 10.30L73.29 10.30L73.29 10.30Q73.42 9.73 73.61 9.11L73.61 9.11L73.61 9.11Q73.81 8.50 74.03 8.02L74.03 8.02L74.03 8.02Q74.24 7.53 74.47 7.25L74.47 7.25L74.47 7.25Q74.69 6.96 74.86 7.03ZM79.62 12.59L79.62 12.59L79.62 12.59Q79.86 13.01 80.14 13.43L80.14 13.43L80.14 13.43Q80.43 13.86 80.72 14.25L80.72 14.25L80.72 14.25Q81.02 14.64 81.30 14.98L81.30 14.98L81.30 14.98Q81.58 15.32 81.79 15.54L81.79 15.54L81.79 15.54Q82.11 15.83 82.36 15.87L82.36 15.87L82.36 15.87Q82.61 15.90 82.81 15.82L82.81 15.82L82.81 15.82Q82.98 15.78 83.10 15.74L83.10 15.74L83.10 15.74Q83.22 15.71 83.37 15.51L83.37 15.51L83.37 15.51Q83.51 15.36 83.52 15.22L83.52 15.22L83.52 15.22Q83.54 15.08 83.34 14.84L83.34 14.84L83.34 14.84Q83.10 14.56 82.84 14.20L82.84 14.20L82.84 14.20Q82.57 13.83 82.30 13.45L82.30 13.45L82.30 13.45Q82.03 13.06 81.77 12.67L81.77 12.67L81.77 12.67Q81.52 12.28 81.31 11.94L81.31 11.94L81.31 11.94Q82.29 11.31 82.98 10.59L82.98 10.59L82.98 10.59Q83.66 9.87 83.93 9.03L83.93 9.03L83.93 9.03Q84.11 8.54 83.96 7.74L83.96 7.74L83.96 7.74Q83.80 7.03 83.55 6.54L83.55 6.54L83.55 6.54Q83.29 6.05 82.99 5.64L82.99 5.64L82.99 5.64Q82.63 5.18 82.15 5.08L82.15 5.08L82.15 5.08Q81.66 4.97 81.13 5.10L81.13 5.10L81.13 5.10Q80.60 5.22 80.05 5.51L80.05 5.51L80.05 5.51Q79.49 5.80 78.99 6.10L78.99 6.10L78.99 6.10Q78.83 6.20 78.69 6.77L78.69 6.77L78.69 6.77Q78.55 7.34 78.41 8.16L78.41 8.16L78.41 8.16Q78.27 8.99 78.16 9.96L78.16 9.96L78.16 9.96Q78.04 10.93 77.94 11.85L77.94 11.85L77.94 11.85Q77.84 12.77 77.76 13.52L77.76 13.52L77.76 13.52Q77.69 14.28 77.64 14.67L77.64 14.67L77.64 14.67Q77.62 15.04 77.67 15.25L77.67 15.25L77.67 15.25Q77.73 15.47 77.90 15.62L77.90 15.62L77.90 15.62Q78.06 15.76 78.26 15.82L78.26 15.82L78.26 15.82Q78.46 15.88 78.69 15.97L78.69 15.97L78.69 15.97Q78.92 16.04 79.00 15.97L79.00 15.97L79.00 15.97Q79.09 15.90 79.13 15.68L79.13 15.68L79.13 15.68Q79.24 14.92 79.36 14.16L79.36 14.16L79.36 14.16Q79.48 13.40 79.62 12.59ZM80.60 7.60L80.60 7.60L80.60 7.60Q80.92 7.39 81.21 7.31L81.21 7.31L81.21 7.31Q81.51 7.22 81.75 7.22L81.75 7.22L81.75 7.22Q82.24 7.22 82.35 7.55L82.35 7.55L82.35 7.55Q82.40 7.74 82.27 8.11L82.27 8.11L82.27 8.11Q82.14 8.47 81.84 8.88L81.84 8.88L81.84 8.88Q81.54 9.28 81.07 9.69L81.07 9.69L81.07 9.69Q80.61 10.09 80.02 10.37L80.02 10.37L80.02 10.37Q80.19 9.58 80.33 8.88L80.33 8.88L80.33 8.88Q80.46 8.19 80.60 7.60ZM89.98 9.51L89.98 9.51L89.98 9.51Q90.01 9.31 90.03 9.03L90.03 9.03L90.03 9.03Q90.05 8.75 90.06 8.45L90.06 8.45L90.06 8.45Q90.06 8.15 90.06 7.84L90.06 7.84L90.06 7.84Q90.05 7.53 90.02 7.29L90.02 7.29L90.02 7.29Q89.96 6.85 89.83 6.49L89.83 6.49L89.83 6.49Q89.70 6.13 89.42 5.84L89.42 5.84L89.42 5.84Q89.12 5.52 88.68 5.30L88.68 5.30L88.68 5.30Q88.24 5.08 87.82 5.01L87.82 5.01L87.82 5.01Q87.53 4.96 87.16 5.01L87.16 5.01L87.16 5.01Q86.80 5.07 86.51 5.36L86.51 5.36L86.51 5.36Q86.03 5.82 85.64 6.50L85.64 6.50L85.64 6.50Q85.25 7.17 84.95 7.96L84.95 7.96L84.95 7.96Q84.66 8.75 84.47 9.60L84.47 9.60L84.47 9.60Q84.28 10.46 84.21 11.30L84.21 11.30L84.21 11.30Q84.14 12.14 84.20 12.90L84.20 12.90L84.20 12.90Q84.27 13.66 84.48 14.27L84.48 14.27L84.48 14.27Q84.59 14.66 84.81 14.99L84.81 14.99L84.81 14.99Q85.04 15.32 85.27 15.51L85.27 15.51L85.27 15.51Q85.92 15.96 86.66 16.10L86.66 16.10L86.66 16.10Q87.49 16.30 88.16 15.72L88.16 15.72L88.16 15.72Q88.66 15.26 89.08 14.42L89.08 14.42L89.08 14.42Q89.50 13.58 89.80 12.39L89.80 12.39L89.80 12.39Q89.87 12.04 89.85 11.82L89.85 11.82L89.85 11.82Q89.84 11.59 89.68 11.30L89.68 11.30L89.68 11.30Q89.60 11.14 89.50 10.96L89.50 10.96L89.50 10.96Q89.40 10.78 89.29 10.63L89.29 10.63L89.29 10.63Q89.14 10.39 88.95 10.32L88.95 10.32L88.95 10.32Q88.76 10.25 88.47 10.30L88.47 10.30L88.47 10.30Q88.21 10.36 87.86 10.42L87.86 10.42L87.86 10.42Q87.51 10.49 87.19 10.58L87.19 10.58L87.19 10.58Q86.86 10.65 86.65 10.74L86.65 10.74L86.65 10.74Q86.44 10.82 86.51 11.14L86.51 11.14L86.51 11.14Q86.66 11.86 86.95 12.17L86.95 12.17L86.95 12.17Q87.25 12.49 87.78 12.45L87.78 12.45L87.78 12.45Q87.64 12.88 87.48 13.27L87.48 13.27L87.48 13.27Q87.32 13.65 87.14 13.92L87.14 13.92L87.14 13.92Q86.97 14.18 86.79 14.31L86.79 14.31L86.79 14.31Q86.62 14.43 86.45 14.35L86.45 14.35L86.45 14.35Q86.25 14.25 86.16 13.85L86.16 13.85L86.16 13.85Q86.06 13.45 86.04 12.89L86.04 12.89L86.04 12.89Q86.03 12.32 86.11 11.66L86.11 11.66L86.11 11.66Q86.18 11.00 86.34 10.40L86.34 10.40L86.34 10.40Q86.51 9.67 86.74 9.02L86.74 9.02L86.74 9.02Q86.97 8.36 87.21 7.88L87.21 7.88L87.21 7.88Q87.44 7.39 87.68 7.13L87.68 7.13L87.68 7.13Q87.91 6.86 88.07 6.93L88.07 6.93L88.07 6.93Q88.16 6.96 88.19 7.11L88.19 7.11L88.19 7.11Q88.23 7.27 88.26 7.48L88.26 7.48L88.26 7.48Q88.27 7.59 88.28 7.71L88.28 7.71L88.28 7.71Q88.28 7.83 88.28 7.95L88.28 7.95L88.28 7.95Q88.28 8.08 88.29 8.19L88.29 8.19L88.29 8.19Q88.30 8.30 88.31 8.41L88.31 8.41L88.31 8.41Q88.37 9.02 88.66 9.39L88.66 9.39L88.66 9.39Q88.94 9.77 89.54 9.88L89.54 9.88L89.54 9.88Q89.77 9.91 89.85 9.83L89.85 9.83L89.85 9.83Q89.92 9.74 89.98 9.51ZM91.49 5.84L91.49 5.84L90.43 13.93L90.43 13.93Q90.40 14.29 90.48 14.56L90.48 14.56L90.48 14.56Q90.55 14.83 90.71 15.02L90.71 15.02L90.71 15.02Q90.89 15.27 91.03 15.44L91.03 15.44L91.03 15.44Q91.17 15.60 91.32 15.75L91.32 15.75L91.32 15.75Q91.46 15.89 91.65 15.97L91.65 15.97L91.65 15.97Q91.84 16.04 92.22 15.90L92.22 15.90L92.22 15.90Q92.78 15.75 93.39 15.57L93.39 15.57L93.39 15.57Q94.01 15.39 94.60 15.22L94.60 15.22L94.60 15.22Q94.84 15.15 94.89 15.04L94.89 15.04L94.89 15.04Q94.93 14.94 94.88 14.66L94.88 14.66L94.88 14.66Q94.81 14.41 94.74 14.17L94.74 14.17L94.74 14.17Q94.67 13.93 94.56 13.66L94.56 13.66L94.56 13.66Q94.46 13.43 94.31 13.34L94.31 13.34L94.31 13.34Q94.16 13.26 93.93 13.29L93.93 13.29L93.93 13.29Q93.48 13.33 93.09 13.39L93.09 13.39L93.09 13.39Q92.69 13.45 92.27 13.57L92.27 13.57L92.27 13.57Q92.34 13.20 92.41 12.82L92.41 12.82L92.41 12.82Q92.48 12.43 92.55 12.03L92.55 12.03L92.55 12.03Q93.07 11.87 93.63 11.74L93.63 11.74L93.63 11.74Q94.18 11.61 94.71 11.47L94.71 11.47L94.71 11.47Q94.95 11.40 95.00 11.30L95.00 11.30L95.00 11.30Q95.06 11.20 94.99 10.91L94.99 10.91L94.99 10.91Q94.93 10.65 94.87 10.42L94.87 10.42L94.87 10.42Q94.81 10.18 94.70 9.93L94.70 9.93L94.70 9.93Q94.60 9.69 94.46 9.61L94.46 9.61L94.46 9.61Q94.32 9.53 94.08 9.55L94.08 9.55L94.08 9.55Q93.80 9.56 93.54 9.58L93.54 9.58L93.54 9.58Q93.28 9.60 93.02 9.66L93.02 9.66L93.02 9.66Q93.16 9.03 93.27 8.46L93.27 8.46L93.27 8.46Q93.38 7.88 93.49 7.36L93.49 7.36L93.49 7.36Q94.08 7.25 94.62 7.17L94.62 7.17L94.62 7.17Q95.16 7.08 95.65 7.01L95.65 7.01L95.65 7.01Q95.89 6.97 95.95 6.87L95.95 6.87L95.95 6.87Q96.01 6.76 95.97 6.47L95.97 6.47L95.97 6.47Q95.91 6.22 95.87 6.01L95.87 6.01L95.87 6.01Q95.82 5.80 95.70 5.53L95.70 5.53L95.70 5.53Q95.56 5.03 95.10 5.05L95.10 5.05L95.10 5.05Q94.12 5.11 93.16 5.35L93.16 5.35L93.16 5.35Q92.20 5.59 91.49 5.84ZM97.99 12.59L97.99 12.59L97.99 12.59Q98.22 13.01 98.51 13.43L98.51 13.43L98.51 13.43Q98.80 13.86 99.09 14.25L99.09 14.25L99.09 14.25Q99.39 14.64 99.67 14.98L99.67 14.98L99.67 14.98Q99.95 15.32 100.16 15.54L100.16 15.54L100.16 15.54Q100.48 15.83 100.73 15.87L100.73 15.87L100.73 15.87Q100.98 15.90 101.18 15.82L101.18 15.82L101.18 15.82Q101.35 15.78 101.47 15.74L101.47 15.74L101.47 15.74Q101.58 15.71 101.74 15.51L101.74 15.51L101.74 15.51Q101.88 15.36 101.89 15.22L101.89 15.22L101.89 15.22Q101.91 15.08 101.71 14.84L101.71 14.84L101.71 14.84Q101.47 14.56 101.21 14.20L101.21 14.20L101.21 14.20Q100.94 13.83 100.67 13.45L100.67 13.45L100.67 13.45Q100.39 13.06 100.14 12.67L100.14 12.67L100.14 12.67Q99.89 12.28 99.68 11.94L99.68 11.94L99.68 11.94Q100.66 11.31 101.35 10.59L101.35 10.59L101.35 10.59Q102.03 9.87 102.30 9.03L102.30 9.03L102.30 9.03Q102.48 8.54 102.33 7.74L102.33 7.74L102.33 7.74Q102.17 7.03 101.91 6.54L101.91 6.54L101.91 6.54Q101.65 6.05 101.36 5.64L101.36 5.64L101.36 5.64Q101.00 5.18 100.51 5.08L100.51 5.08L100.51 5.08Q100.03 4.97 99.50 5.10L99.50 5.10L99.50 5.10Q98.97 5.22 98.41 5.51L98.41 5.51L98.41 5.51Q97.86 5.80 97.36 6.10L97.36 6.10L97.36 6.10Q97.20 6.20 97.06 6.77L97.06 6.77L97.06 6.77Q96.92 7.34 96.78 8.16L96.78 8.16L96.78 8.16Q96.64 8.99 96.52 9.96L96.52 9.96L96.52 9.96Q96.40 10.93 96.31 11.85L96.31 11.85L96.31 11.85Q96.21 12.77 96.13 13.52L96.13 13.52L96.13 13.52Q96.05 14.28 96.01 14.67L96.01 14.67L96.01 14.67Q95.98 15.04 96.04 15.25L96.04 15.25L96.04 15.25Q96.10 15.47 96.26 15.62L96.26 15.62L96.26 15.62Q96.43 15.76 96.63 15.82L96.63 15.82L96.63 15.82Q96.82 15.88 97.06 15.97L97.06 15.97L97.06 15.97Q97.29 16.04 97.37 15.97L97.37 15.97L97.37 15.97Q97.45 15.90 97.50 15.68L97.50 15.68L97.50 15.68Q97.61 14.92 97.73 14.16L97.73 14.16L97.73 14.16Q97.85 13.40 97.99 12.59ZM98.97 7.60L98.97 7.60L98.97 7.60Q99.29 7.39 99.58 7.31L99.58 7.31L99.58 7.31Q99.88 7.22 100.11 7.22L100.11 7.22L100.11 7.22Q100.60 7.22 100.72 7.55L100.72 7.55L100.72 7.55Q100.77 7.74 100.64 8.11L100.64 8.11L100.64 8.11Q100.51 8.47 100.21 8.88L100.21 8.88L100.21 8.88Q99.90 9.28 99.44 9.69L99.44 9.69L99.44 9.69Q98.98 10.09 98.39 10.37L98.39 10.37L98.39 10.37Q98.56 9.58 98.69 8.88L98.69 8.88L98.69 8.88Q98.83 8.19 98.97 7.60Z"></path></g><!----><!----><g data-v-423bf9ae="" id="1260cc63-aabb-450f-a306-7f0313f318bf" fill="black" transform="matrix(5.172414048248195,0,0,5.172414048248195,148.66470253283194,108.2241402440632)"><path d="M4.19 6.69L4.19 6.69L4.19 6.69Q3.63 6.69 3.33 6.38L3.33 6.38L3.33 6.38Q3.02 6.06 3.02 5.61L3.02 5.61L3.02 5.61Q3.02 5.50 3.06 5.35L3.06 5.35L3.06 5.35Q3.09 5.19 3.15 5.08L3.15 5.08L3.15 5.08Q3.33 5.17 3.69 5.20L3.69 5.20L3.69 5.20Q4.05 5.24 4.52 5.24L4.52 5.24L4.52 5.24Q5.24 5.24 6.14 5.17L6.14 5.17L6.14 5.17Q7.04 5.11 7.87 5.04L7.87 5.04L7.87 5.04Q8.69 4.97 9.32 4.91L9.32 4.91L9.32 4.91Q9.95 4.84 10.14 4.84L10.14 4.84L10.14 4.84Q10.65 4.84 10.88 5.23L10.88 5.23L10.88 5.23Q11.12 5.61 11.23 6.26L11.23 6.26L11.23 6.26Q10.86 6.23 10.51 6.21L10.51 6.21L10.51 6.21Q10.15 6.19 9.90 6.19L9.90 6.19L9.90 6.19Q9.45 6.19 9.00 6.22L9.00 6.22L9.00 6.22Q8.54 6.24 8.08 6.30L8.08 6.30L8.08 6.30Q7.88 6.71 7.64 7.26L7.64 7.26L7.64 7.26Q7.41 7.81 7.17 8.41L7.17 8.41L7.17 8.41Q6.94 9.02 6.73 9.61L6.73 9.61L6.73 9.61Q6.52 10.21 6.37 10.68L6.37 10.68L6.37 10.68Q6.06 11.61 5.83 12.39L5.83 12.39L5.83 12.39Q5.60 13.17 5.42 13.85L5.42 13.85L5.42 13.85Q5.25 14.53 5.12 15.15L5.12 15.15L5.12 15.15Q5.00 15.76 4.90 16.35L4.90 16.35L4.90 16.35Q3.96 16.21 3.33 15.18L3.33 15.18L3.33 15.18Q3.44 14.74 3.60 14.23L3.60 14.23L3.60 14.23Q3.77 13.72 3.98 13.07L3.98 13.07L3.98 13.07Q4.20 12.42 4.49 11.59L4.49 11.59L4.49 11.59Q4.79 10.77 5.17 9.72L5.17 9.72L5.17 9.72Q5.31 9.32 5.46 8.90L5.46 8.90L5.46 8.90Q5.61 8.47 5.76 8.05L5.76 8.05L5.76 8.05Q5.91 7.63 6.03 7.24L6.03 7.24L6.03 7.24Q6.15 6.85 6.23 6.52L6.23 6.52L6.23 6.52Q5.64 6.59 5.12 6.64L5.12 6.64L5.12 6.64Q4.59 6.69 4.19 6.69ZM16.62 16.24L16.62 16.24L16.62 16.24Q15.95 16.04 15.69 15.85L15.69 15.85L15.69 15.85Q15.43 15.65 15.43 15.36L15.43 15.36L15.43 15.36Q15.43 15.13 15.55 14.73L15.55 14.73L15.55 14.73Q15.68 14.32 15.92 13.77L15.92 13.77L15.92 13.77Q16.17 13.22 16.51 12.54L16.51 12.54L16.51 12.54Q16.86 11.87 17.29 11.10L17.29 11.10L17.29 11.10Q16.93 11.09 16.64 11.08L16.64 11.08L16.64 11.08Q16.35 11.07 16.17 11.07L16.17 11.07L16.17 11.07Q16.25 10.86 16.65 10.71L16.65 10.71L16.65 10.71Q17.04 10.56 17.68 10.44L17.68 10.44L17.68 10.44Q18.23 9.53 18.85 8.71L18.85 8.71L18.85 8.71Q19.47 7.88 20.10 7.19L20.10 7.19L20.10 7.19Q20.73 6.50 21.36 5.97L21.36 5.97L21.36 5.97Q21.99 5.45 22.57 5.14L22.57 5.14L22.57 5.14Q22.58 5.04 22.59 4.97L22.59 4.97L22.59 4.97Q22.60 4.90 22.60 4.87L22.60 4.87L22.60 4.87Q22.79 4.87 23.12 4.97L23.12 4.97L23.12 4.97Q23.45 5.07 23.77 5.21L23.77 5.21L23.77 5.21Q24.08 5.35 24.32 5.49L24.32 5.49L24.32 5.49Q24.57 5.64 24.60 5.74L24.60 5.74L24.60 5.74Q24.14 6.55 23.69 8.17L23.69 8.17L23.69 8.17Q23.24 9.79 22.95 12.04L22.95 12.04L22.95 12.04Q22.88 12.60 22.83 13.31L22.83 13.31L22.83 13.31Q22.78 14.03 22.78 14.91L22.78 14.91L22.78 14.91Q22.78 15.22 22.78 15.54L22.78 15.54L22.78 15.54Q22.78 15.86 22.81 16.21L22.81 16.21L22.81 16.21Q22.78 16.23 22.75 16.23L22.75 16.23L22.75 16.23Q22.72 16.23 22.64 16.23L22.64 16.23L22.64 16.23Q22.44 16.23 22.18 16.16L22.18 16.16L22.18 16.16Q21.92 16.10 21.68 16.01L21.68 16.01L21.68 16.01Q21.43 15.92 21.26 15.81L21.26 15.81L21.26 15.81Q21.08 15.69 21.04 15.61L21.04 15.61L21.04 15.61Q21.03 15.43 21.03 15.25L21.03 15.25L21.03 15.25Q21.03 15.08 21.03 14.88L21.03 14.88L21.03 14.88Q21.03 14.01 21.09 13.12L21.09 13.12L21.09 13.12Q21.15 12.22 21.31 11.27L21.31 11.27L21.31 11.27Q21.11 11.26 20.79 11.23L20.79 11.23L20.79 11.23Q20.47 11.21 20.07 11.20L20.07 11.20L20.07 11.20Q19.67 11.19 19.21 11.16L19.21 11.16L19.21 11.16Q18.76 11.14 18.33 11.13L18.33 11.13L18.33 11.13Q17.99 11.76 17.70 12.38L17.70 12.38L17.70 12.38Q17.40 13.01 17.19 13.64L17.19 13.64L17.19 13.64Q16.95 14.31 16.81 14.98L16.81 14.98L16.81 14.98Q16.66 15.65 16.62 16.24ZM22.02 7.83L22.02 7.83L22.02 7.83Q22.08 7.63 22.15 7.29L22.15 7.29L22.15 7.29Q22.23 6.94 22.30 6.57L22.30 6.57L22.30 6.57Q21.95 6.69 21.52 7.03L21.52 7.03L21.52 7.03Q21.10 7.36 20.64 7.86L20.64 7.86L20.64 7.86Q20.19 8.36 19.72 8.98L19.72 8.98L19.72 8.98Q19.25 9.60 18.82 10.30L18.82 10.30L18.82 10.30Q19.99 10.21 21.49 10.18L21.49 10.18L21.49 10.18Q21.60 9.59 21.73 9.01L21.73 9.01L21.73 9.01Q21.87 8.43 22.02 7.83ZM35.24 10.74L35.24 10.74L35.24 10.74Q36.11 9.45 36.95 8.37L36.95 8.37L36.95 8.37Q37.80 7.28 38.57 6.50L38.57 6.50L38.57 6.50Q39.34 5.71 39.98 5.28L39.98 5.28L39.98 5.28Q40.63 4.84 41.10 4.84L41.10 4.84L41.10 4.84Q41.29 4.84 41.50 4.98L41.50 4.98L41.50 4.98Q41.72 5.12 41.91 5.35L41.91 5.35L41.91 5.35Q42.10 5.57 42.22 5.83L42.22 5.83L42.22 5.83Q42.35 6.09 42.35 6.33L42.35 6.33L42.35 6.33Q41.48 6.61 40.65 7.06L40.65 7.06L40.65 7.06Q39.82 7.52 39.05 8.11L39.05 8.11L39.05 8.11Q38.29 8.71 37.60 9.44L37.60 9.44L37.60 9.44Q36.90 10.16 36.34 10.99L36.34 10.99L36.34 10.99Q36.57 11.56 36.90 12.21L36.90 12.21L36.90 12.21Q37.23 12.87 37.62 13.47L37.62 13.47L37.62 13.47Q38.01 14.08 38.46 14.60L38.46 14.60L38.46 14.60Q38.91 15.12 39.37 15.43L39.37 15.43L39.37 15.43Q39.30 15.58 39.13 15.72L39.13 15.72L39.13 15.72Q38.96 15.86 38.77 15.98L38.77 15.98L38.77 15.98Q38.57 16.10 38.35 16.17L38.35 16.17L38.35 16.17Q38.14 16.24 37.95 16.24L37.95 16.24L37.95 16.24Q37.59 16.24 37.28 15.90L37.28 15.90L37.28 15.90Q36.97 15.55 36.66 14.86L36.66 14.86L36.66 14.86Q36.34 14.17 36.00 13.14L36.00 13.14L36.00 13.14Q35.66 12.11 35.24 10.74ZM33.12 16.31L33.12 16.31L33.12 16.31Q32.59 16.18 32.24 15.87L32.24 15.87L32.24 15.87Q31.89 15.55 31.60 15.08L31.60 15.08L31.60 15.08Q31.72 14.81 31.90 14.38L31.90 14.38L31.90 14.38Q32.07 13.94 32.33 13.31L32.33 13.31L32.33 13.31Q32.58 12.67 32.93 11.78L32.93 11.78L32.93 11.78Q33.28 10.89 33.74 9.70L33.74 9.70L33.74 9.70Q34.03 8.95 34.22 8.43L34.22 8.43L34.22 8.43Q34.41 7.91 34.54 7.41L34.54 7.41L34.54 7.41Q34.68 6.92 34.80 6.31L34.80 6.31L34.80 6.31Q34.93 5.71 35.10 4.79L35.10 4.79L35.10 4.79Q35.69 4.90 36.17 5.31L36.17 5.31L36.17 5.31Q36.65 5.71 37.00 6.29L37.00 6.29L37.00 6.29Q36.85 6.48 36.64 6.88L36.64 6.88L36.64 6.88Q36.44 7.28 36.19 7.84L36.19 7.84L36.19 7.84Q35.94 8.40 35.63 9.09L35.63 9.09L35.63 9.09Q35.32 9.77 34.99 10.54L34.99 10.54L34.99 10.54Q34.23 12.22 33.80 13.62L33.80 13.62L33.80 13.62Q33.36 15.01 33.12 16.31ZM53.90 9.21L53.90 9.21L53.90 9.21Q54.36 9.21 54.62 9.46L54.62 9.46L54.62 9.46Q54.88 9.72 54.88 10.16L54.88 10.16L54.88 10.16Q54.88 10.28 54.86 10.39L54.86 10.39L54.86 10.39Q54.84 10.51 54.81 10.60L54.81 10.60L54.81 10.60Q54.63 10.57 54.40 10.55L54.40 10.55L54.40 10.55Q54.18 10.53 53.87 10.53L53.87 10.53L53.87 10.53Q53.27 10.53 52.65 10.63L52.65 10.63L52.65 10.63Q52.04 10.74 51.48 10.81L51.48 10.81L51.48 10.81Q51.16 11.55 50.89 12.24L50.89 12.24L50.89 12.24Q50.62 12.94 50.43 13.51L50.43 13.51L50.43 13.51Q50.25 14.08 50.14 14.50L50.14 14.50L50.14 14.50Q50.04 14.92 50.02 15.13L50.02 15.13L50.02 15.13Q51.16 14.90 52.31 14.73L52.31 14.73L52.31 14.73Q53.47 14.56 54.74 14.48L54.74 14.48L54.74 14.48Q54.89 14.71 55.00 14.99L55.00 14.99L55.00 14.99Q55.10 15.27 55.10 15.60L55.10 15.60L55.10 15.60Q55.10 15.68 55.10 15.78L55.10 15.78L55.10 15.78Q55.10 15.88 55.08 15.97L55.08 15.97L55.08 15.97Q54.68 15.96 54.25 15.95L54.25 15.95L54.25 15.95Q53.82 15.95 53.12 15.95L53.12 15.95L53.12 15.95Q52.65 15.95 52.24 15.97L52.24 15.97L52.24 15.97Q51.83 15.99 51.41 16.03L51.41 16.03L51.41 16.03Q50.99 16.07 50.52 16.14L50.52 16.14L50.52 16.14Q50.05 16.21 49.46 16.31L49.46 16.31L49.46 16.31Q48.82 16.06 48.22 15.08L48.22 15.08L48.22 15.08Q48.45 14.57 48.88 13.54L48.88 13.54L48.88 13.54Q49.31 12.52 49.97 10.79L49.97 10.79L49.97 10.79Q49.34 10.60 49.14 10.09L49.14 10.09L49.14 10.09Q49.21 10.02 49.55 9.92L49.55 9.92L49.55 9.92Q49.88 9.81 50.37 9.70L50.37 9.70L50.37 9.70Q50.58 9.16 50.73 8.75L50.73 8.75L50.73 8.75Q50.88 8.34 50.99 7.99L50.99 7.99L50.99 7.99Q51.10 7.63 51.19 7.29L51.19 7.29L51.19 7.29Q51.28 6.94 51.37 6.54L51.37 6.54L51.37 6.54Q50.88 6.51 50.60 6.27L50.60 6.27L50.60 6.27Q50.32 6.02 50.32 5.63L50.32 5.63L50.32 5.63Q50.32 5.52 50.35 5.36L50.35 5.36L50.35 5.36Q50.39 5.21 50.43 5.10L50.43 5.10L50.43 5.10Q50.71 5.14 50.97 5.15L50.97 5.15L50.97 5.15Q51.23 5.17 51.65 5.17L51.65 5.17L51.65 5.17Q52.53 5.17 53.30 5.12L53.30 5.12L53.30 5.12Q54.07 5.07 54.69 5.01L54.69 5.01L54.69 5.01Q55.31 4.96 55.76 4.91L55.76 4.91L55.76 4.91Q56.21 4.86 56.45 4.86L56.45 4.86L56.45 4.86Q56.77 4.86 57.02 5.19L57.02 5.19L57.02 5.19Q57.27 5.53 57.40 6.15L57.40 6.15L57.40 6.15Q56.97 6.10 56.69 6.09L56.69 6.09L56.69 6.09Q56.42 6.08 56.21 6.08L56.21 6.08L56.21 6.08Q55.44 6.08 54.80 6.15L54.80 6.15L54.80 6.15Q54.17 6.23 53.58 6.31L53.58 6.31L53.58 6.31Q53.49 6.44 53.39 6.64L53.39 6.64L53.39 6.64Q53.28 6.83 53.12 7.18L53.12 7.18L53.12 7.18Q52.95 7.53 52.70 8.06L52.70 8.06L52.70 8.06Q52.46 8.60 52.11 9.39L52.11 9.39L52.11 9.39Q52.64 9.31 53.11 9.26L53.11 9.26L53.11 9.26Q53.58 9.21 53.90 9.21ZM72.77 5.74L72.77 5.74L72.77 5.74Q72.81 5.98 72.83 6.07L72.83 6.07L72.83 6.07Q72.86 6.16 72.86 6.31L72.86 6.31L72.86 6.31Q72.86 6.78 72.65 7.18L72.65 7.18L72.65 7.18Q72.45 7.57 72.10 7.74L72.10 7.74L72.10 7.74Q71.82 7.36 71.41 7.09L71.41 7.09L71.41 7.09Q71.01 6.82 70.52 6.64L70.52 6.64L70.52 6.64Q70.04 6.47 69.52 6.38L69.52 6.38L69.52 6.38Q69.01 6.30 68.52 6.30L68.52 6.30L68.52 6.30Q68.03 6.30 67.60 6.38L67.60 6.38L67.60 6.38Q67.17 6.45 66.84 6.59L66.84 6.59L66.84 6.59Q66.51 6.72 66.32 6.92L66.32 6.92L66.32 6.92Q66.14 7.11 66.14 7.36L66.14 7.36L66.14 7.36Q66.18 7.67 66.51 7.99L66.51 7.99L66.51 7.99Q66.85 8.30 67.34 8.60L67.34 8.60L67.34 8.60Q67.83 8.90 68.42 9.20L68.42 9.20L68.42 9.20Q69.02 9.49 69.59 9.76L69.59 9.76L69.59 9.76Q70.31 10.09 70.83 10.38L70.83 10.38L70.83 10.38Q71.34 10.67 71.68 11.01L71.68 11.01L71.68 11.01Q72.02 11.35 72.18 11.79L72.18 11.79L72.18 11.79Q72.35 12.22 72.35 12.84L72.35 12.84L72.35 12.84Q72.35 13.55 72.11 14.18L72.11 14.18L72.11 14.18Q71.88 14.80 71.42 15.26L71.42 15.26L71.42 15.26Q70.97 15.72 70.32 15.98L70.32 15.98L70.32 15.98Q69.68 16.24 68.88 16.24L68.88 16.24L68.88 16.24Q68.10 16.24 67.19 16.00L67.19 16.00L67.19 16.00Q66.28 15.76 65.48 15.35L65.48 15.35L65.48 15.35Q64.69 14.94 64.17 14.40L64.17 14.40L64.17 14.40Q63.64 13.86 63.64 13.26L63.64 13.26L63.64 13.26Q63.64 12.98 63.80 12.54L63.80 12.54L63.80 12.54Q63.97 12.11 64.39 11.63L64.39 11.63L64.39 11.63Q64.43 12.05 64.84 12.63L64.84 12.63L64.84 12.63Q65.25 13.20 66.08 13.69L66.08 13.69L66.08 13.69Q66.85 14.14 67.67 14.34L67.67 14.34L67.67 14.34Q68.49 14.55 69.20 14.55L69.20 14.55L69.20 14.55Q69.99 14.55 70.48 14.35L70.48 14.35L70.48 14.35Q70.97 14.15 71.25 13.88L71.25 13.88L71.25 13.88Q71.53 13.61 71.64 13.33L71.64 13.33L71.64 13.33Q71.75 13.05 71.76 12.88L71.76 12.88L71.76 12.88Q71.75 12.60 71.50 12.34L71.50 12.34L71.50 12.34Q71.26 12.08 70.85 11.84L70.85 11.84L70.85 11.84Q70.43 11.59 69.89 11.34L69.89 11.34L69.89 11.34Q69.34 11.09 68.75 10.84L68.75 10.84L68.75 10.84Q67.87 10.44 67.23 10.10L67.23 10.10L67.23 10.10Q66.60 9.76 66.18 9.40L66.18 9.40L66.18 9.40Q65.77 9.04 65.58 8.65L65.58 8.65L65.58 8.65Q65.39 8.26 65.39 7.76L65.39 7.76L65.39 7.76Q65.39 6.97 65.87 6.27L65.87 6.27L65.87 6.27Q66.35 5.57 67.24 5.21L67.24 5.21L67.24 5.21Q67.69 5.01 68.20 4.93L68.20 4.93L68.20 4.93Q68.71 4.84 69.20 4.84L69.20 4.84L69.20 4.84Q70.13 4.84 71.01 5.10L71.01 5.10L71.01 5.10Q71.89 5.35 72.77 5.74ZM91.38 12.43L91.38 12.43L91.38 12.43Q91.38 11.45 91.61 10.51L91.61 10.51L91.61 10.51Q91.84 9.56 92.26 8.71L92.26 8.71L92.26 8.71Q92.68 7.87 93.26 7.16L93.26 7.16L93.26 7.16Q93.84 6.45 94.53 5.94L94.53 5.94L94.53 5.94Q95.23 5.42 96.01 5.13L96.01 5.13L96.01 5.13Q96.80 4.84 97.62 4.84L97.62 4.84L97.62 4.84Q98.59 4.84 99.13 5.25L99.13 5.25L99.13 5.25Q99.67 5.66 99.67 6.38L99.67 6.38L99.67 6.38Q99.67 6.66 99.59 6.96L99.59 6.96L99.59 6.96Q99.51 7.25 99.36 7.54L99.36 7.54L99.36 7.54Q99.22 7.83 99.02 8.09L99.02 8.09L99.02 8.09Q98.83 8.36 98.59 8.55L98.59 8.55L98.59 8.55Q98.22 8.50 97.96 8.22L97.96 8.22L97.96 8.22Q97.69 7.95 97.62 7.59L97.62 7.59L97.62 7.59Q98.11 7.18 98.40 6.74L98.40 6.74L98.40 6.74Q98.69 6.30 98.69 5.94L98.69 5.94L98.69 5.94Q98.69 5.32 97.92 5.32L97.92 5.32L97.92 5.32Q97.59 5.32 97.25 5.45L97.25 5.45L97.25 5.45Q96.91 5.59 96.56 5.82L96.56 5.82L96.56 5.82Q96.21 6.06 95.88 6.40L95.88 6.40L95.88 6.40Q95.55 6.73 95.27 7.14L95.27 7.14L95.27 7.14Q93.32 9.94 93.32 12.87L93.32 12.87L93.32 12.87Q93.32 13.90 93.65 14.53L93.65 14.53L93.65 14.53Q93.97 15.16 94.50 15.27L94.50 15.27L94.50 15.27Q95.10 15.13 96.03 14.50L96.03 14.50L96.03 14.50Q96.95 13.87 98.04 12.87L98.04 12.87L98.04 12.87Q98.18 13.01 98.21 13.16L98.21 13.16L98.21 13.16Q97.80 13.69 97.37 14.18L97.37 14.18L97.37 14.18Q96.94 14.67 96.51 15.08L96.51 15.08L96.51 15.08Q96.08 15.48 95.67 15.79L95.67 15.79L95.67 15.79Q95.26 16.10 94.91 16.27L94.91 16.27L94.91 16.27Q93.17 16.24 92.27 15.27L92.27 15.27L92.27 15.27Q91.38 14.31 91.38 12.43ZM106.82 16.24L106.82 16.24L106.82 16.24Q106.15 16.04 105.89 15.85L105.89 15.85L105.89 15.85Q105.63 15.65 105.63 15.36L105.63 15.36L105.63 15.36Q105.63 15.13 105.76 14.73L105.76 14.73L105.76 14.73Q105.88 14.32 106.13 13.77L106.13 13.77L106.13 13.77Q106.37 13.22 106.72 12.54L106.72 12.54L106.72 12.54Q107.06 11.87 107.49 11.10L107.49 11.10L107.49 11.10Q107.13 11.09 106.84 11.08L106.84 11.08L106.84 11.08Q106.55 11.07 106.37 11.07L106.37 11.07L106.37 11.07Q106.46 10.86 106.85 10.71L106.85 10.71L106.85 10.71Q107.24 10.56 107.88 10.44L107.88 10.44L107.88 10.44Q108.43 9.53 109.05 8.71L109.05 8.71L109.05 8.71Q109.68 7.88 110.31 7.19L110.31 7.19L110.31 7.19Q110.94 6.50 111.57 5.97L111.57 5.97L111.57 5.97Q112.20 5.45 112.77 5.14L112.77 5.14L112.77 5.14Q112.78 5.04 112.79 4.97L112.79 4.97L112.79 4.97Q112.80 4.90 112.80 4.87L112.80 4.87L112.80 4.87Q112.99 4.87 113.32 4.97L113.32 4.97L113.32 4.97Q113.65 5.07 113.97 5.21L113.97 5.21L113.97 5.21Q114.28 5.35 114.53 5.49L114.53 5.49L114.53 5.49Q114.77 5.64 114.80 5.74L114.80 5.74L114.80 5.74Q114.34 6.55 113.89 8.17L113.89 8.17L113.89 8.17Q113.44 9.79 113.15 12.04L113.15 12.04L113.15 12.04Q113.08 12.60 113.03 13.31L113.03 13.31L113.03 13.31Q112.98 14.03 112.98 14.91L112.98 14.91L112.98 14.91Q112.98 15.22 112.98 15.54L112.98 15.54L112.98 15.54Q112.98 15.86 113.01 16.21L113.01 16.21L113.01 16.21Q112.98 16.23 112.95 16.23L112.95 16.23L112.95 16.23Q112.92 16.23 112.84 16.23L112.84 16.23L112.84 16.23Q112.64 16.23 112.38 16.16L112.38 16.16L112.38 16.16Q112.13 16.10 111.88 16.01L111.88 16.01L111.88 16.01Q111.64 15.92 111.46 15.81L111.46 15.81L111.46 15.81Q111.29 15.69 111.24 15.61L111.24 15.61L111.24 15.61Q111.23 15.43 111.23 15.25L111.23 15.25L111.23 15.25Q111.23 15.08 111.23 14.88L111.23 14.88L111.23 14.88Q111.23 14.01 111.29 13.12L111.29 13.12L111.29 13.12Q111.36 12.22 111.51 11.27L111.51 11.27L111.51 11.27Q111.31 11.26 110.99 11.23L110.99 11.23L110.99 11.23Q110.67 11.21 110.27 11.20L110.27 11.20L110.27 11.20Q109.87 11.19 109.42 11.16L109.42 11.16L109.42 11.16Q108.96 11.14 108.53 11.13L108.53 11.13L108.53 11.13Q108.19 11.76 107.90 12.38L107.90 12.38L107.90 12.38Q107.60 13.01 107.39 13.64L107.39 13.64L107.39 13.64Q107.16 14.31 107.01 14.98L107.01 14.98L107.01 14.98Q106.86 15.65 106.82 16.24ZM112.22 7.83L112.22 7.83L112.22 7.83Q112.28 7.63 112.36 7.29L112.36 7.29L112.36 7.29Q112.43 6.94 112.50 6.57L112.50 6.57L112.50 6.57Q112.15 6.69 111.73 7.03L111.73 7.03L111.73 7.03Q111.30 7.36 110.84 7.86L110.84 7.86L110.84 7.86Q110.39 8.36 109.92 8.98L109.92 8.98L109.92 8.98Q109.45 9.60 109.02 10.30L109.02 10.30L109.02 10.30Q110.19 10.21 111.69 10.18L111.69 10.18L111.69 10.18Q111.80 9.59 111.94 9.01L111.94 9.01L111.94 9.01Q112.07 8.43 112.22 7.83ZM131.70 7.46L131.70 7.46L131.70 7.46Q131.70 8.13 131.40 8.73L131.40 8.73L131.40 8.73Q131.10 9.32 130.56 9.79L130.56 9.79L130.56 9.79Q130.03 10.26 129.32 10.58L129.32 10.58L129.32 10.58Q128.60 10.91 127.76 11.02L127.76 11.02L127.76 11.02Q127.97 11.65 128.28 12.31L128.28 12.31L128.28 12.31Q128.58 12.98 128.93 13.59L128.93 13.59L128.93 13.59Q129.28 14.21 129.65 14.73L129.65 14.73L129.65 14.73Q130.03 15.25 130.40 15.58L130.40 15.58L130.40 15.58Q130.33 15.72 130.19 15.86L130.19 15.86L130.19 15.86Q130.06 16.00 129.88 16.12L129.88 16.12L129.88 16.12Q129.71 16.24 129.52 16.32L129.52 16.32L129.52 16.32Q129.33 16.39 129.16 16.39L129.16 16.39L129.16 16.39Q128.86 16.39 128.58 16.10L128.58 16.10L128.58 16.10Q128.30 15.81 128.01 15.17L128.01 15.17L128.01 15.17Q127.72 14.53 127.41 13.52L127.41 13.52L127.41 13.52Q127.09 12.50 126.71 11.07L126.71 11.07L126.71 11.07Q126.56 11.07 126.41 11.07L126.41 11.07L126.41 11.07Q126.25 11.07 126.17 11.05L126.17 11.05L126.17 11.05Q126.07 10.99 125.96 10.85L125.96 10.85L125.96 10.85Q125.58 11.66 125.29 12.38L125.29 12.38L125.29 12.38Q124.99 13.09 124.76 13.76L124.76 13.76L124.76 13.76Q124.53 14.42 124.35 15.04L124.35 15.04L124.35 15.04Q124.18 15.67 124.05 16.31L124.05 16.31L124.05 16.31Q123.58 16.20 123.23 15.90L123.23 15.90L123.23 15.90Q122.88 15.61 122.57 15.08L122.57 15.08L122.57 15.08Q122.63 14.95 122.69 14.83L122.69 14.83L122.69 14.83Q122.75 14.71 122.85 14.50L122.85 14.50L122.85 14.50Q122.95 14.28 123.09 13.94L123.09 13.94L123.09 13.94Q123.24 13.61 123.49 13.05L123.49 13.05L123.49 13.05Q123.73 12.49 124.07 11.68L124.07 11.68L124.07 11.68Q124.42 10.86 124.91 9.70L124.91 9.70L124.91 9.70Q125.13 9.18 125.29 8.79L125.29 8.79L125.29 8.79Q125.45 8.40 125.58 8.04L125.58 8.04L125.58 8.04Q125.71 7.69 125.81 7.33L125.81 7.33L125.81 7.33Q125.92 6.97 126.03 6.51L126.03 6.51L126.03 6.51Q125.38 6.73 124.83 7.01L124.83 7.01L124.83 7.01Q124.28 7.28 123.91 7.59L123.91 7.59L123.91 7.59Q123.79 7.50 123.66 7.34L123.66 7.34L123.66 7.34Q123.52 7.17 123.41 6.96L123.41 6.96L123.41 6.96Q123.30 6.76 123.21 6.55L123.21 6.55L123.21 6.55Q123.13 6.34 123.12 6.17L123.12 6.17L123.12 6.17Q123.54 5.89 124.14 5.66L124.14 5.66L124.14 5.66Q124.75 5.42 125.44 5.24L125.44 5.24L125.44 5.24Q126.13 5.07 126.84 4.97L126.84 4.97L126.84 4.97Q127.55 4.87 128.17 4.87L128.17 4.87L128.17 4.87Q129.85 4.87 130.77 5.56L130.77 5.56L130.77 5.56Q131.70 6.26 131.70 7.46ZM128.11 6.02L128.28 6.29L128.28 6.29Q128.18 6.41 127.97 6.79L127.97 6.79L127.97 6.79Q127.76 7.17 127.49 7.69L127.49 7.69L127.49 7.69Q127.22 8.22 126.92 8.83L126.92 8.83L126.92 8.83Q126.62 9.45 126.34 10.05L126.34 10.05L126.34 10.05Q127.39 10.05 128.27 9.86L128.27 9.86L128.27 9.86Q129.15 9.66 129.79 9.30L129.79 9.30L129.79 9.30Q130.44 8.95 130.79 8.46L130.79 8.46L130.79 8.46Q131.15 7.98 131.15 7.39L131.15 7.39L131.15 7.39Q131.15 6.69 130.65 6.32L130.65 6.32L130.65 6.32Q130.14 5.95 129.09 5.95L129.09 5.95L129.09 5.95Q128.86 5.95 128.62 5.97L128.62 5.97L128.62 5.97Q128.38 5.99 128.11 6.02L128.11 6.02ZM144.52 9.21L144.52 9.21L144.52 9.21Q144.98 9.21 145.24 9.46L145.24 9.46L145.24 9.46Q145.50 9.72 145.50 10.16L145.50 10.16L145.50 10.16Q145.50 10.28 145.48 10.39L145.48 10.39L145.48 10.39Q145.46 10.51 145.43 10.60L145.43 10.60L145.43 10.60Q145.25 10.57 145.03 10.55L145.03 10.55L145.03 10.55Q144.80 10.53 144.49 10.53L144.49 10.53L144.49 10.53Q143.89 10.53 143.28 10.63L143.28 10.63L143.28 10.63Q142.66 10.74 142.10 10.81L142.10 10.81L142.10 10.81Q141.78 11.55 141.51 12.24L141.51 12.24L141.51 12.24Q141.25 12.94 141.06 13.51L141.06 13.51L141.06 13.51Q140.87 14.08 140.76 14.50L140.76 14.50L140.76 14.50Q140.66 14.92 140.64 15.13L140.64 15.13L140.64 15.13Q141.78 14.90 142.93 14.73L142.93 14.73L142.93 14.73Q144.09 14.56 145.36 14.48L145.36 14.48L145.36 14.48Q145.52 14.71 145.62 14.99L145.62 14.99L145.62 14.99Q145.73 15.27 145.73 15.60L145.73 15.60L145.73 15.60Q145.73 15.68 145.73 15.78L145.73 15.78L145.73 15.78Q145.73 15.88 145.70 15.97L145.70 15.97L145.70 15.97Q145.31 15.96 144.87 15.95L144.87 15.95L144.87 15.95Q144.44 15.95 143.74 15.95L143.74 15.95L143.74 15.95Q143.28 15.95 142.86 15.97L142.86 15.97L142.86 15.97Q142.45 15.99 142.03 16.03L142.03 16.03L142.03 16.03Q141.61 16.07 141.14 16.14L141.14 16.14L141.14 16.14Q140.67 16.21 140.08 16.31L140.08 16.31L140.08 16.31Q139.44 16.06 138.84 15.08L138.84 15.08L138.84 15.08Q139.08 14.57 139.50 13.54L139.50 13.54L139.50 13.54Q139.93 12.52 140.59 10.79L140.59 10.79L140.59 10.79Q139.96 10.60 139.76 10.09L139.76 10.09L139.76 10.09Q139.83 10.02 140.17 9.92L140.17 9.92L140.17 9.92Q140.50 9.81 140.99 9.70L140.99 9.70L140.99 9.70Q141.20 9.16 141.35 8.75L141.35 8.75L141.35 8.75Q141.50 8.34 141.61 7.99L141.61 7.99L141.61 7.99Q141.72 7.63 141.81 7.29L141.81 7.29L141.81 7.29Q141.90 6.94 141.99 6.54L141.99 6.54L141.99 6.54Q141.50 6.51 141.22 6.27L141.22 6.27L141.22 6.27Q140.94 6.02 140.94 5.63L140.94 5.63L140.94 5.63Q140.94 5.52 140.97 5.36L140.97 5.36L140.97 5.36Q141.01 5.21 141.05 5.10L141.05 5.10L141.05 5.10Q141.33 5.14 141.59 5.15L141.59 5.15L141.59 5.15Q141.85 5.17 142.27 5.17L142.27 5.17L142.27 5.17Q143.15 5.17 143.92 5.12L143.92 5.12L143.92 5.12Q144.69 5.07 145.31 5.01L145.31 5.01L145.31 5.01Q145.94 4.96 146.38 4.91L146.38 4.91L146.38 4.91Q146.83 4.86 147.07 4.86L147.07 4.86L147.07 4.86Q147.39 4.86 147.64 5.19L147.64 5.19L147.64 5.19Q147.90 5.53 148.02 6.15L148.02 6.15L148.02 6.15Q147.59 6.10 147.31 6.09L147.31 6.09L147.31 6.09Q147.04 6.08 146.83 6.08L146.83 6.08L146.83 6.08Q146.06 6.08 145.42 6.15L145.42 6.15L145.42 6.15Q144.79 6.23 144.20 6.31L144.20 6.31L144.20 6.31Q144.12 6.44 144.01 6.64L144.01 6.64L144.01 6.64Q143.91 6.83 143.74 7.18L143.74 7.18L143.74 7.18Q143.57 7.53 143.32 8.06L143.32 8.06L143.32 8.06Q143.08 8.60 142.73 9.39L142.73 9.39L142.73 9.39Q143.26 9.31 143.73 9.26L143.73 9.26L143.73 9.26Q144.20 9.21 144.52 9.21Z"></path></g></svg>